<svg id="SvgjsSvg2187" width="1418.0665893554688" height="1242.4666595458984" xmlns="http://www.w3.org/2000/svg" version="1.1" xmlns:xlink="http://www.w3.org/1999/xlink" xmlns:svgjs="http://svgjs.com/svgjs"><defs id="SvgjsDefs2188"><marker id="SvgjsMarker2191" markerWidth="14" markerHeight="12" refX="16" refY="6" viewBox="0 0 14 12" orient="auto" markerUnits="userSpaceOnUse" stroke-dasharray="0,0"><path id="SvgjsPath2192" d="M1,1 L14,6 L1,11L1,1" fill="#ffffff" stroke="#323232" stroke-width="2"></path></marker><marker id="SvgjsMarker2195" markerWidth="16" markerHeight="16" refX="11" refY="8" viewBox="0 0 16 16" orient="auto" markerUnits="userSpaceOnUse" stroke-dasharray="0,0"><path id="SvgjsPath2196" d="M0,0 L10,8 L0,16" fill="none" stroke="#323232" stroke-width="2"></path></marker><marker id="SvgjsMarker2199" markerWidth="16" markerHeight="16" refX="11" refY="8" viewBox="0 0 16 16" orient="auto" markerUnits="userSpaceOnUse" stroke-dasharray="0,0"><path id="SvgjsPath2200" d="M0,0 L10,8 L0,16" fill="none" stroke="#323232" stroke-width="2"></path></marker><marker id="SvgjsMarker2203" markerWidth="16" markerHeight="16" refX="11" refY="8" viewBox="0 0 16 16" orient="auto" markerUnits="userSpaceOnUse" stroke-dasharray="0,0"><path id="SvgjsPath2204" d="M0,0 L10,8 L0,16" fill="none" stroke="#323232" stroke-width="2"></path></marker><marker id="SvgjsMarker2207" markerWidth="16" markerHeight="16" refX="11" refY="8" viewBox="0 0 16 16" orient="auto" markerUnits="userSpaceOnUse" stroke-dasharray="0,0"><path id="SvgjsPath2208" d="M0,0 L10,8 L0,16" fill="none" stroke="#323232" stroke-width="2"></path></marker><marker id="SvgjsMarker2211" markerWidth="16" markerHeight="16" refX="11" refY="8" viewBox="0 0 16 16" orient="auto" markerUnits="userSpaceOnUse" stroke-dasharray="0,0"><path id="SvgjsPath2212" d="M0,0 L10,8 L0,16" fill="none" stroke="#323232" stroke-width="2"></path></marker><marker id="SvgjsMarker2271" markerWidth="16" markerHeight="20" refX="0" refY="10" viewBox="0 0 16 20" orient="auto" markerUnits="userSpaceOnUse" stroke-dasharray="0,0"><path id="SvgjsPath2272" d="M15,1 L1,10 L15,19" fill="none" stroke="#323232" stroke-width="2"></path></marker><marker id="SvgjsMarker2327" markerWidth="16" markerHeight="16" refX="11" refY="8" viewBox="0 0 16 16" orient="auto" markerUnits="userSpaceOnUse" stroke-dasharray="0,0"><path id="SvgjsPath2328" d="M0,0 L10,8 L0,16" fill="none" stroke="#323232" stroke-width="2"></path></marker><marker id="SvgjsMarker2331" markerWidth="16" markerHeight="16" refX="11" refY="8" viewBox="0 0 16 16" orient="auto" markerUnits="userSpaceOnUse" stroke-dasharray="0,0"><path id="SvgjsPath2332" d="M0,0 L10,8 L0,16" fill="none" stroke="#323232" stroke-width="2"></path></marker><marker id="SvgjsMarker2335" markerWidth="16" markerHeight="16" refX="11" refY="8" viewBox="0 0 16 16" orient="auto" markerUnits="userSpaceOnUse" stroke-dasharray="0,0"><path id="SvgjsPath2336" d="M0,0 L10,8 L0,16" fill="none" stroke="#323232" stroke-width="2"></path></marker><marker id="SvgjsMarker2379" markerWidth="16" markerHeight="20" refX="0" refY="10" viewBox="0 0 16 20" orient="auto" markerUnits="userSpaceOnUse" stroke-dasharray="0,0"><path id="SvgjsPath2380" d="M15,1 L1,10 L15,19" fill="none" stroke="#323232" stroke-width="2"></path></marker><marker id="SvgjsMarker2421" markerWidth="16" markerHeight="16" refX="11" refY="8" viewBox="0 0 16 16" orient="auto" markerUnits="userSpaceOnUse" stroke-dasharray="0,0"><path id="SvgjsPath2422" d="M0,0 L10,8 L0,16" fill="none" stroke="#323232" stroke-width="2"></path></marker><marker id="SvgjsMarker2425" markerWidth="14" markerHeight="12" refX="16" refY="6" viewBox="0 0 14 12" orient="auto" markerUnits="userSpaceOnUse" stroke-dasharray="0,0"><path id="SvgjsPath2426" d="M1,1 L14,6 L1,11L1,1" fill="#ffffff" stroke="#323232" stroke-width="2"></path></marker><marker id="SvgjsMarker2429" markerWidth="16" markerHeight="16" refX="11" refY="8" viewBox="0 0 16 16" orient="auto" markerUnits="userSpaceOnUse" stroke-dasharray="0,0"><path id="SvgjsPath2430" d="M0,0 L10,8 L0,16" fill="none" stroke="#323232" stroke-width="2"></path></marker><marker id="SvgjsMarker2491" markerWidth="16" markerHeight="16" refX="11" refY="8" viewBox="0 0 16 16" orient="auto" markerUnits="userSpaceOnUse" stroke-dasharray="0,0"><path id="SvgjsPath2492" d="M0,0 L10,8 L0,16" fill="none" stroke="#323232" stroke-width="2"></path></marker><marker id="SvgjsMarker2495" markerWidth="16" markerHeight="16" refX="11" refY="8" viewBox="0 0 16 16" orient="auto" markerUnits="userSpaceOnUse" stroke-dasharray="0,0"><path id="SvgjsPath2496" d="M0,0 L10,8 L0,16" fill="none" stroke="#323232" stroke-width="2"></path></marker><marker id="SvgjsMarker2499" markerWidth="16" markerHeight="16" refX="11" refY="8" viewBox="0 0 16 16" orient="auto" markerUnits="userSpaceOnUse" stroke-dasharray="0,0"><path id="SvgjsPath2500" d="M0,0 L10,8 L0,16" fill="none" stroke="#323232" stroke-width="2"></path></marker><marker id="SvgjsMarker2517" markerWidth="16" markerHeight="16" refX="11" refY="8" viewBox="0 0 16 16" orient="auto" markerUnits="userSpaceOnUse" stroke-dasharray="0,0"><path id="SvgjsPath2518" d="M0,0 L10,8 L0,16" fill="none" stroke="#323232" stroke-width="2"></path></marker><marker id="SvgjsMarker2521" markerWidth="16" markerHeight="16" refX="11" refY="8" viewBox="0 0 16 16" orient="auto" markerUnits="userSpaceOnUse" stroke-dasharray="0,0"><path id="SvgjsPath2522" d="M0,0 L10,8 L0,16" fill="none" stroke="#323232" stroke-width="2"></path></marker><marker id="SvgjsMarker2541" markerWidth="14" markerHeight="12" refX="16" refY="6" viewBox="0 0 14 12" orient="auto" markerUnits="userSpaceOnUse" stroke-dasharray="0,0"><path id="SvgjsPath2542" d="M1,1 L14,6 L1,11L1,1" fill="#ffffff" stroke="#323232" stroke-width="2"></path></marker><marker id="SvgjsMarker2567" markerWidth="16" markerHeight="16" refX="11" refY="8" viewBox="0 0 16 16" orient="auto" markerUnits="userSpaceOnUse" stroke-dasharray="0,0"><path id="SvgjsPath2568" d="M0,0 L10,8 L0,16" fill="none" stroke="#323232" stroke-width="2"></path></marker><marker id="SvgjsMarker2571" markerWidth="16" markerHeight="16" refX="11" refY="8" viewBox="0 0 16 16" orient="auto" markerUnits="userSpaceOnUse" stroke-dasharray="0,0"><path id="SvgjsPath2572" d="M0,0 L10,8 L0,16" fill="none" stroke="#323232" stroke-width="2"></path></marker></defs><g id="SvgjsG2189"><path id="SvgjsPath2190" d="M218.00177655901223 889.8369118826731L218.00177655901223 847.225801404401L218.00177655901223 847.225801404401L218.00177655901223 804.6146909261281" stroke-dasharray="8,5" stroke="#323232" stroke-width="2" fill="none" marker-end="url(#SvgjsMarker2191)"></path></g><g id="SvgjsG2193"><path id="SvgjsPath2194" d="M218.00177655901257 1002.2258014044014L218.00177655901257 1165.1385012888209L394.7525054219862 1165.1385012888209" stroke="#323232" stroke-width="2" fill="none" marker-end="url(#SvgjsMarker2195)"></path></g><g id="SvgjsG2197"><path id="SvgjsPath2198" d="M333.0017765590122 955.2258014044016L363.87714099049924 955.2258014044016L363.87714099049924 850.5333404541013L394.7525054219862 850.5333404541013" stroke-dasharray="8,5" stroke="#323232" stroke-width="2" fill="none" marker-end="url(#SvgjsMarker2199)"></path></g><g id="SvgjsG2201"><path id="SvgjsPath2202" d="M509.7525054219851 1093.4718337832742L509.7525054219851 1011.1970326080534L509.7525054219851 1011.1970326080534L509.7525054219851 928.9222314328326" stroke-dasharray="8,5" stroke="#323232" stroke-width="2" fill="none" marker-end="url(#SvgjsMarker2203)"></path></g><g id="SvgjsG2205"><path id="SvgjsPath2206" d="M332.5432958200547 797.5447315300424L363.67220024260246 797.5447315300424L363.67220024260246 825.8215332031237L394.80110466515026 825.8215332031237" stroke-dasharray="8,5" stroke="#323232" stroke-width="2" fill="none" marker-end="url(#SvgjsMarker2207)"></path></g><g id="SvgjsG2209"><path id="SvgjsPath2210" d="M509.7525054219851 693.0585488331715L509.7525054219851 731.5459446436365L509.7525054219851 731.5459446436365L509.7525054219851 770.0333404541016" stroke-dasharray="8,5" stroke="#323232" stroke-width="2" fill="none" marker-end="url(#SvgjsMarker2211)"></path></g><g id="SvgjsG2213" transform="translate(394.7525054219862,770.0333404541016)"><path id="SvgjsPath2214" d="M 0 4Q 0 0 4 0L 226 0Q 230 0 230 4L 230 236Q 230 240 226 240L 4 240Q 0 240 0 236Z" stroke="rgba(50,50,50,1)" stroke-width="2" fill-opacity="1" fill="#ffffff"></path><path id="SvgjsPath2215" d="M 0 30L 230 30M 0 192L 230 192" stroke="rgba(50,50,50,1)" stroke-width="2" fill="none"></path><path id="SvgjsPath2216" d="M 0 0L 230 0L 230 240L 0 240Z" stroke="none" fill="none"></path><g id="SvgjsG2217"><text id="SvgjsText2218" font-family="微软雅黑" text-anchor="middle" font-size="13px" width="210px" fill="#323232" font-weight="700" align="middle" anchor="middle" family="微软雅黑" size="13px" weight="700" font-style="" opacity="1" y="5.05" transform="rotate(0)"><tspan id="SvgjsTspan2219" dy="16" x="115"><tspan id="SvgjsTspan2220" style="text-decoration:;">User</tspan></tspan></text></g><g id="SvgjsG2221"><text id="SvgjsText2222" font-family="微软雅黑" text-anchor="start" font-size="13px" width="210px" fill="#323232" font-weight="400" align="middle" anchor="start" family="微软雅黑" size="13px" weight="400" font-style="" opacity="1" y="28.05" transform="rotate(0)"><tspan id="SvgjsTspan2223" dy="16" x="10"><tspan id="SvgjsTspan2224" style="text-decoration:;">- int uid;</tspan></tspan><tspan id="SvgjsTspan2225" dy="16" x="10"><tspan id="SvgjsTspan2226" style="text-decoration:;">- String username;</tspan></tspan><tspan id="SvgjsTspan2227" dy="16" x="10"><tspan id="SvgjsTspan2228" style="text-decoration:;">- String password;</tspan></tspan><tspan id="SvgjsTspan2229" dy="16" x="10"><tspan id="SvgjsTspan2230" style="text-decoration:;">- String name;</tspan></tspan><tspan id="SvgjsTspan2231" dy="16" x="10"><tspan id="SvgjsTspan2232" style="text-decoration:;">- String birthday;</tspan></tspan><tspan id="SvgjsTspan2233" dy="16" x="10"><tspan id="SvgjsTspan2234" style="text-decoration:;">- String sex;</tspan></tspan><tspan id="SvgjsTspan2235" dy="16" x="10"><tspan id="SvgjsTspan2236" style="text-decoration:;">- String telephone;</tspan></tspan><tspan id="SvgjsTspan2237" dy="16" x="10"><tspan id="SvgjsTspan2238" style="text-decoration:;">- String email;</tspan></tspan><tspan id="SvgjsTspan2239" dy="16" x="10"><tspan id="SvgjsTspan2240" style="text-decoration:;">- String status;</tspan></tspan><tspan id="SvgjsTspan2241" dy="16" x="10"><tspan id="SvgjsTspan2242" style="text-decoration:;">- String code;</tspan></tspan></text></g><g id="SvgjsG2243"><text id="SvgjsText2244" font-family="微软雅黑" text-anchor="start" font-size="13px" width="210px" fill="#323232" font-weight="400" align="middle" anchor="start" family="微软雅黑" size="13px" weight="400" font-style="" opacity="1" y="207.05" transform="rotate(0)"><tspan id="SvgjsTspan2245" dy="16" x="10"><tspan id="SvgjsTspan2246" style="text-decoration:;">+setter/getter</tspan></tspan></text></g></g><g id="SvgjsG2247" transform="translate(394.7525054219862,1093.4718337832742)"><path id="SvgjsPath2248" d="M 0 4Q 0 0 4 0L 226 0Q 230 0 230 4L 230 120.00000000000001Q 230 124.00000000000001 226 124.00000000000001L 4 124.00000000000001Q 0 124.00000000000001 0 120.00000000000001Z" stroke="rgba(50,50,50,1)" stroke-width="2" fill-opacity="1" fill="#ffffff"></path><path id="SvgjsPath2249" d="M 0 30L 230 30M 0 60.000000000000014L 230 60.000000000000014" stroke="rgba(50,50,50,1)" stroke-width="2" fill="none"></path><path id="SvgjsPath2250" d="M 0 0L 230 0L 230 124.00000000000001L 0 124.00000000000001Z" stroke="none" fill="none"></path><g id="SvgjsG2251"><text id="SvgjsText2252" font-family="微软雅黑" text-anchor="middle" font-size="13px" width="210px" fill="#323232" font-weight="700" align="middle" anchor="middle" family="微软雅黑" size="13px" weight="700" font-style="" opacity="1" y="5.05" transform="rotate(0)"><tspan id="SvgjsTspan2253" dy="16" x="115"><tspan id="SvgjsTspan2254" style="text-decoration:;">UserDatabase</tspan></tspan></text></g><g id="SvgjsG2255"><text id="SvgjsText2256" font-family="微软雅黑" text-anchor="start" font-size="13px" width="210px" fill="#323232" font-weight="400" align="middle" anchor="start" family="微软雅黑" size="13px" weight="400" font-style="" opacity="1" y="38.050000000000004" transform="rotate(0)"><tspan id="SvgjsTspan2257" dy="16" x="10"><tspan id="SvgjsTspan2258" style="text-decoration:;">- user:User</tspan></tspan></text></g><g id="SvgjsG2259"><text id="SvgjsText2260" font-family="微软雅黑" text-anchor="start" font-size="13px" width="210px" fill="#323232" font-weight="400" align="middle" anchor="start" family="微软雅黑" size="13px" weight="400" font-style="" opacity="1" y="58.05000000000001" transform="rotate(0)"><tspan id="SvgjsTspan2261" dy="16" x="10"><tspan id="SvgjsTspan2262" style="text-decoration:;">+ add(User):String</tspan></tspan><tspan id="SvgjsTspan2263" dy="16" x="10"><tspan id="SvgjsTspan2264" style="text-decoration:;">+ update(User):String</tspan></tspan><tspan id="SvgjsTspan2265" dy="16" x="10"><tspan id="SvgjsTspan2266" style="text-decoration:;">+ deleteById(User):String</tspan></tspan><tspan id="SvgjsTspan2267" dy="16" x="10"><tspan id="SvgjsTspan2268" style="text-decoration:;">+ getById(String):User</tspan></tspan></text></g></g><g id="SvgjsG2269"><path id="SvgjsPath2270" d="M333.0017765590122 778.003580447858L363.87714099049924 778.003580447858L363.87714099049924 658.122106528292L394.7525054219862 658.122106528292" stroke="#323232" stroke-width="2" fill="none" marker-start="url(#SvgjsMarker2271)"></path></g><g id="SvgjsG2273" transform="translate(394.7525054219862,575.4083404541014)"><path id="SvgjsPath2274" d="M 0 4Q 0 0 4 0L 226 0Q 230 0 230 4L 230 108.44444694636786Q 230 112.44444694636786 226 112.44444694636786L 4 112.44444694636786Q 0 112.44444694636786 0 108.44444694636786Z" stroke="rgba(50,50,50,1)" stroke-width="2" fill-opacity="1" fill="#ffffff"></path><path id="SvgjsPath2275" d="M 0 30L 230 30M 0 60L 230 60" stroke="rgba(50,50,50,1)" stroke-width="2" fill="none"></path><path id="SvgjsPath2276" d="M 0 0L 230 0L 230 112.44444694636786L 0 112.44444694636786Z" stroke="none" fill="none"></path><g id="SvgjsG2277"><text id="SvgjsText2278" font-family="微软雅黑" text-anchor="middle" font-size="13px" width="210px" fill="#323232" font-weight="700" align="middle" anchor="middle" family="微软雅黑" size="13px" weight="700" font-style="" opacity="1" y="5.05" transform="rotate(0)"><tspan id="SvgjsTspan2279" dy="16" x="115"><tspan id="SvgjsTspan2280" style="text-decoration:;">UserAction</tspan></tspan></text></g><g id="SvgjsG2281"><text id="SvgjsText2282" font-family="微软雅黑" text-anchor="start" font-size="13px" width="210px" fill="#323232" font-weight="400" align="middle" anchor="start" family="微软雅黑" size="13px" weight="400" font-style="" opacity="1" y="35.05" transform="rotate(0)"><tspan id="SvgjsTspan2283" dy="16" x="10"><tspan id="SvgjsTspan2284" style="text-decoration:;">- userService:UserService</tspan></tspan></text></g><g id="SvgjsG2285"><text id="SvgjsText2286" font-family="微软雅黑" text-anchor="start" font-size="13px" width="210px" fill="#323232" font-weight="400" align="middle" anchor="start" family="微软雅黑" size="13px" weight="400" font-style="" opacity="1" y="58.05" transform="rotate(0)"><tspan id="SvgjsTspan2287" dy="16" x="10"><tspan id="SvgjsTspan2288" style="text-decoration:;">+ rigister()</tspan></tspan><tspan id="SvgjsTspan2289" dy="16" x="10"><tspan id="SvgjsTspan2290" style="text-decoration:;">+ login()</tspan></tspan><tspan id="SvgjsTspan2291" dy="16" x="10"><tspan id="SvgjsTspan2292" style="text-decoration:;">+ queryRoute()</tspan></tspan></text></g></g><g id="SvgjsG2293" transform="translate(103.0017765590126,726.6146909261297)"><path id="SvgjsPath2294" d="M 0 4Q 0 0 4 0L 226 0Q 230 0 230 4L 230 74Q 230 78 226 78L 4 78Q 0 78 0 74Z" stroke="rgba(50,50,50,1)" stroke-width="2" fill-opacity="1" fill="#ffffff"></path><path id="SvgjsPath2295" d="M 0 30L 230 30" stroke="rgba(50,50,50,1)" stroke-width="2" fill="none"></path><path id="SvgjsPath2296" d="M 0 0L 230 0L 230 78L 0 78Z" stroke="none" fill="none"></path><g id="SvgjsG2297"><text id="SvgjsText2298" font-family="微软雅黑" text-anchor="middle" font-size="13px" width="210px" fill="#323232" font-weight="700" align="middle" anchor="middle" family="微软雅黑" size="13px" weight="700" font-style="italic" opacity="1" y="5.05" transform="rotate(0)"><tspan id="SvgjsTspan2299" dy="16" x="115"><tspan id="SvgjsTspan2300" style="text-decoration:;">UserService</tspan></tspan></text></g><g id="SvgjsG2301"><text id="SvgjsText2302" font-family="微软雅黑" text-anchor="start" font-size="13px" width="210px" fill="#323232" font-weight="400" align="middle" anchor="start" family="微软雅黑" size="13px" weight="400" font-style="italic" opacity="1" y="38.43888952172834" transform="rotate(0)"><tspan id="SvgjsTspan2303" dy="16" x="10"><tspan id="SvgjsTspan2304" style="text-decoration:;">+ listUser()</tspan></tspan><tspan id="SvgjsTspan2305" dy="16" x="10"><tspan id="SvgjsTspan2306" style="text-decoration:;">+ queryUser(int):User</tspan></tspan><tspan id="SvgjsTspan2307" dy="16" x="10"><tspan id="SvgjsTspan2308" style="text-decoration:;"> </tspan></tspan></text></g></g><g id="SvgjsG2309" transform="translate(103.0017765590126,889.8369118826731)"><path id="SvgjsPath2310" d="M 0 4Q 0 0 4 0L 226 0Q 230 0 230 4L 230 108.38888952172834Q 230 112.38888952172834 226 112.38888952172834L 4 112.38888952172834Q 0 112.38888952172834 0 108.38888952172834Z" stroke="rgba(50,50,50,1)" stroke-width="2" fill-opacity="1" fill="#ffffff"></path><path id="SvgjsPath2311" d="M 0 30L 230 30M 0 80.38888952172834L 230 80.38888952172834" stroke="rgba(50,50,50,1)" stroke-width="2" fill="none"></path><path id="SvgjsPath2312" d="M 0 0L 230 0L 230 112.38888952172834L 0 112.38888952172834Z" stroke="none" fill="none"></path><g id="SvgjsG2313"><text id="SvgjsText2314" font-family="微软雅黑" text-anchor="middle" font-size="13px" width="210px" fill="#323232" font-weight="700" align="middle" anchor="middle" family="微软雅黑" size="13px" weight="700" font-style="" opacity="1" y="5.05" transform="rotate(0)"><tspan id="SvgjsTspan2315" dy="16" x="115"><tspan id="SvgjsTspan2316" style="text-decoration:;">UserServiceImpl</tspan></tspan></text></g><g id="SvgjsG2317"><text id="SvgjsText2318" font-family="微软雅黑" text-anchor="start" font-size="13px" width="210px" fill="#323232" font-weight="400" align="middle" anchor="start" family="微软雅黑" size="13px" weight="400" font-style="" opacity="1" y="45.24444476086417" transform="rotate(0)"></text></g><g id="SvgjsG2319"><text id="SvgjsText2320" font-family="微软雅黑" text-anchor="start" font-size="13px" width="210px" fill="#323232" font-weight="400" align="middle" anchor="start" family="微软雅黑" size="13px" weight="400" font-style="" opacity="1" y="78.43888952172834" transform="rotate(0)"><tspan id="SvgjsTspan2321" dy="16" x="10"><tspan id="SvgjsTspan2322" style="text-decoration:;">+ listUser()</tspan></tspan><tspan id="SvgjsTspan2323" dy="16" x="10"><tspan id="SvgjsTspan2324" style="text-decoration:;">+ queryUser(int):User</tspan></tspan></text></g></g><g id="SvgjsG2325"><path id="SvgjsPath2326" d="M883.7638140022619 744.5194509323733L883.7638140022619 788.3924671218083L884.1008169871183 788.3924671218083L884.1008169871183 832.2654833112432" stroke="#323232" stroke-width="2" fill="none" marker-end="url(#SvgjsMarker2327)"></path></g><g id="SvgjsG2329"><path id="SvgjsPath2330" d="M1073.7200670540221 696.0878472178956L1115.8966360922327 696.0878472178956L1115.8966360922327 697.2341539486864L1158.073205130443 697.2341539486864" stroke-dasharray="8,5" stroke="#323232" stroke-width="2" fill="none" marker-end="url(#SvgjsMarker2331)"></path></g><g id="SvgjsG2333"><path id="SvgjsPath2334" d="M1046.557070038878 900.0141424451554L1102.7298879243344 900.0141424451554L1102.7298879243344 719.681285686254L1158.9027058097909 719.681285686254" stroke-dasharray="8,5" stroke="#323232" stroke-width="2" fill="none" marker-end="url(#SvgjsMarker2335)"></path></g><g id="SvgjsG2337" transform="translate(1158.073205130443,609.0881000523846)"><path id="SvgjsPath2338" d="M 0 4Q 0 0 4 0L 230.8125 0Q 234.8125 0 234.8125 4L 234.8125 118.66944801660225Q 234.8125 122.66944801660225 230.8125 122.66944801660225L 4 122.66944801660225Q 0 122.66944801660225 0 118.66944801660225Z" stroke="rgba(50,50,50,1)" stroke-width="2" fill-opacity="1" fill="#ffffff"></path><path id="SvgjsPath2339" d="M 0 30L 234.8125 30M 0 80L 234.8125 80" stroke="rgba(50,50,50,1)" stroke-width="2" fill="none"></path><path id="SvgjsPath2340" d="M 0 0L 234.8125 0L 234.8125 122.66944801660225L 0 122.66944801660225Z" stroke="none" fill="none"></path><g id="SvgjsG2341"><text id="SvgjsText2342" font-family="微软雅黑" text-anchor="middle" font-size="13px" width="215px" fill="#323232" font-weight="700" align="middle" anchor="middle" family="微软雅黑" size="13px" weight="700" font-style="" opacity="1" y="5.05" transform="rotate(0)"><tspan id="SvgjsTspan2343" dy="16" x="117.5"><tspan id="SvgjsTspan2344" style="text-decoration:;">Favorite</tspan></tspan></text></g><g id="SvgjsG2345"><text id="SvgjsText2346" font-family="微软雅黑" text-anchor="start" font-size="13px" width="215px" fill="#323232" font-weight="400" align="middle" anchor="start" family="微软雅黑" size="13px" weight="400" font-style="" opacity="1" y="28.05" transform="rotate(0)"><tspan id="SvgjsTspan2347" dy="16" x="10"><tspan id="SvgjsTspan2348" style="text-decoration:;">- Route route;</tspan></tspan><tspan id="SvgjsTspan2349" dy="16" x="10"><tspan id="SvgjsTspan2350" style="text-decoration:;">- String date;</tspan></tspan><tspan id="SvgjsTspan2351" dy="16" x="10"><tspan id="SvgjsTspan2352" style="text-decoration:;">- User user;</tspan></tspan></text></g><g id="SvgjsG2353"><text id="SvgjsText2354" font-family="微软雅黑" text-anchor="start" font-size="13px" width="215px" fill="#323232" font-weight="400" align="middle" anchor="start" family="微软雅黑" size="13px" weight="400" font-style="" opacity="1" y="92.38472400830112" transform="rotate(0)"><tspan id="SvgjsTspan2355" dy="16" x="10"><tspan id="SvgjsTspan2356" style="text-decoration:;">+setter/getter</tspan></tspan></text></g></g><g id="SvgjsG2357" transform="translate(721.6445639353605,832.2654833112432)"><path id="SvgjsPath2358" d="M 0 4Q 0 0 4 0L 320.9125061035156 0Q 324.9125061035156 0 324.9125061035156 4L 324.9125061035156 126.82499694824219Q 324.9125061035156 130.8249969482422 320.9125061035156 130.8249969482422L 4 130.8249969482422Q 0 130.8249969482422 0 126.82499694824219Z" stroke="rgba(50,50,50,1)" stroke-width="2" fill-opacity="1" fill="#ffffff"></path><path id="SvgjsPath2359" d="M 0 30L 324.9125061035156 30M 0 60.000000000000014L 324.9125061035156 60.000000000000014" stroke="rgba(50,50,50,1)" stroke-width="2" fill="none"></path><path id="SvgjsPath2360" d="M 0 0L 324.9125061035156 0L 324.9125061035156 130.8249969482422L 0 130.8249969482422Z" stroke="none" fill="none"></path><g id="SvgjsG2361"><text id="SvgjsText2362" font-family="微软雅黑" text-anchor="middle" font-size="13px" width="305px" fill="#323232" font-weight="700" align="middle" anchor="middle" family="微软雅黑" size="13px" weight="700" font-style="" opacity="1" y="5.05" transform="rotate(0)"><tspan id="SvgjsTspan2363" dy="16" x="162.5"><tspan id="SvgjsTspan2364" style="text-decoration:;">FavoriteDatabase</tspan></tspan></text></g><g id="SvgjsG2365"><text id="SvgjsText2366" font-family="微软雅黑" text-anchor="start" font-size="13px" width="305px" fill="#323232" font-weight="400" align="middle" anchor="start" family="微软雅黑" size="13px" weight="400" font-style="" opacity="1" y="38.050000000000004" transform="rotate(0)"><tspan id="SvgjsTspan2367" dy="16" x="10"><tspan id="SvgjsTspan2368" style="text-decoration:;">- order:Order</tspan></tspan></text></g><g id="SvgjsG2369"><text id="SvgjsText2370" font-family="微软雅黑" text-anchor="start" font-size="13px" width="305px" fill="#323232" font-weight="400" align="middle" anchor="start" family="微软雅黑" size="13px" weight="400" font-style="" opacity="1" y="74.05000000000001" transform="rotate(0)"><tspan id="SvgjsTspan2371" dy="16" x="10"><tspan id="SvgjsTspan2372" style="text-decoration:;">+ add(User,String):void</tspan></tspan><tspan id="SvgjsTspan2373" dy="16" x="10"><tspan id="SvgjsTspan2374" style="text-decoration:;">+ deleteById(User,String):void</tspan></tspan><tspan id="SvgjsTspan2375" dy="16" x="10"><tspan id="SvgjsTspan2376" style="text-decoration:;">+ getById(User,String):PageBean&lt;Favorite&gt;</tspan></tspan></text></g></g><g id="SvgjsG2377"><path id="SvgjsPath2378" d="M1059.8301051111434 492.2816278867082L1275.479455130443 492.2816278867082L1275.479455130443 609.0881000523846" stroke="#323232" stroke-width="2" fill="none" marker-start="url(#SvgjsMarker2379)"></path></g><g id="SvgjsG2381" transform="translate(706.1863643990998,469.75754515498215)"><path id="SvgjsPath2382" d="M 0 4Q 0 0 4 0L 350.5 0Q 354.5 0 354.5 4L 354.5 90Q 354.5 94 350.5 94L 4 94Q 0 94 0 90Z" stroke="rgba(50,50,50,1)" stroke-width="2" fill-opacity="1" fill="#ffffff"></path><path id="SvgjsPath2383" d="M 0 30L 354.5 30" stroke="rgba(50,50,50,1)" stroke-width="2" fill="none"></path><path id="SvgjsPath2384" d="M 0 0L 354.5 0L 354.5 94L 0 94Z" stroke="none" fill="none"></path><g id="SvgjsG2385"><text id="SvgjsText2386" font-family="微软雅黑" text-anchor="middle" font-size="13px" width="335px" fill="#323232" font-weight="700" align="middle" anchor="middle" family="微软雅黑" size="13px" weight="700" font-style="italic" opacity="1" y="5.05" transform="rotate(0)"><tspan id="SvgjsTspan2387" dy="16" x="177.5"><tspan id="SvgjsTspan2388" style="text-decoration:;">FavoriteService</tspan></tspan></text></g><g id="SvgjsG2389"><text id="SvgjsText2390" font-family="微软雅黑" text-anchor="start" font-size="13px" width="335px" fill="#323232" font-weight="400" align="middle" anchor="start" family="微软雅黑" size="13px" weight="400" font-style="italic" opacity="1" y="28.05" transform="rotate(0)"><tspan id="SvgjsTspan2391" dy="16" x="10"><tspan id="SvgjsTspan2392" style="text-decoration:;">+ isFavorite(String rid, int uid):boolean</tspan></tspan><tspan id="SvgjsTspan2393" dy="16" x="10"><tspan id="SvgjsTspan2394" style="text-decoration:;">+ add(User,String):void</tspan></tspan><tspan id="SvgjsTspan2395" dy="16" x="10"><tspan id="SvgjsTspan2396" style="text-decoration:;">+ cancel(User,String):void</tspan></tspan><tspan id="SvgjsTspan2397" dy="16" x="10"><tspan id="SvgjsTspan2398" style="text-decoration:;">+ myFavorite(User,String):PageBean&lt;Favorite&gt;</tspan></tspan></text></g></g><g id="SvgjsG2399" transform="translate(693.8075609505041,636.5194509323734)"><path id="SvgjsPath2400" d="M 0 4Q 0 0 4 0L 375.9125061035156 0Q 379.9125061035156 0 379.9125061035156 4L 379.9125061035156 120.00000000000001Q 379.9125061035156 124.00000000000001 375.9125061035156 124.00000000000001L 4 124.00000000000001Q 0 124.00000000000001 0 120.00000000000001Z" stroke="rgba(50,50,50,1)" stroke-width="2" fill-opacity="1" fill="#ffffff"></path><path id="SvgjsPath2401" d="M 0 30L 379.9125061035156 30M 0 60.000000000000014L 379.9125061035156 60.000000000000014" stroke="rgba(50,50,50,1)" stroke-width="2" fill="none"></path><path id="SvgjsPath2402" d="M 0 0L 379.9125061035156 0L 379.9125061035156 124.00000000000001L 0 124.00000000000001Z" stroke="none" fill="none"></path><g id="SvgjsG2403"><text id="SvgjsText2404" font-family="微软雅黑" text-anchor="middle" font-size="13px" width="360px" fill="#323232" font-weight="700" align="middle" anchor="middle" family="微软雅黑" size="13px" weight="700" font-style="" opacity="1" y="5.05" transform="rotate(0)"><tspan id="SvgjsTspan2405" dy="16" x="190"><tspan id="SvgjsTspan2406" style="text-decoration:;">FavoriteServiceImpl</tspan></tspan></text></g><g id="SvgjsG2407"><text id="SvgjsText2408" font-family="微软雅黑" text-anchor="start" font-size="13px" width="360px" fill="#323232" font-weight="400" align="middle" anchor="start" family="微软雅黑" size="13px" weight="400" font-style="" opacity="1" y="35.050000000000004" transform="rotate(0)"></text></g><g id="SvgjsG2409"><text id="SvgjsText2410" font-family="微软雅黑" text-anchor="start" font-size="13px" width="360px" fill="#323232" font-weight="400" align="middle" anchor="start" family="微软雅黑" size="13px" weight="400" font-style="" opacity="1" y="58.05000000000001" transform="rotate(0)"><tspan id="SvgjsTspan2411" dy="16" x="10"><tspan id="SvgjsTspan2412" style="text-decoration:;">+ isFavorite(String rid, int uid):boolean</tspan></tspan><tspan id="SvgjsTspan2413" dy="16" x="10"><tspan id="SvgjsTspan2414" style="text-decoration:;">+ add(User,String):void</tspan></tspan><tspan id="SvgjsTspan2415" dy="16" x="10"><tspan id="SvgjsTspan2416" style="text-decoration:;">+ cancel(User,String):void</tspan></tspan><tspan id="SvgjsTspan2417" dy="16" x="10"><tspan id="SvgjsTspan2418" style="text-decoration:;">+ myFavorite(User,String):PageBean&lt;Favorite&gt;</tspan></tspan></text></g></g><g id="SvgjsG2419"><path id="SvgjsPath2420" d="M624.7525054219851 658.122106528292L665.4694349105425 658.122106528292L665.4694349105425 530.4229567213699L706.1863643990998 530.4229567213699" stroke="#323232" stroke-width="2" fill="none" marker-end="url(#SvgjsMarker2421)"></path></g><g id="SvgjsG2423"><path id="SvgjsPath2424" d="M883.7638140022619 636.5194509323734L883.7638140022619 600.1384980436776L883.4363643990998 600.1384980436776L883.4363643990998 563.7575451549818" stroke-dasharray="8,5" stroke="#323232" stroke-width="2" fill="none" marker-end="url(#SvgjsMarker2425)"></path></g><g id="SvgjsG2427"><path id="SvgjsPath2428" d="M1060.6863643991019 527.4335652039623L1109.5747597967495 527.4335652039623L1109.5747597967495 680.5927063256962L1158.4631551943971 680.5927063256962" stroke-dasharray="8,5" stroke="#323232" stroke-width="2" fill="none" marker-end="url(#SvgjsMarker2429)"></path></g><g id="SvgjsG2431" transform="translate(41.026568821498216,24.99611772809692)"><path id="SvgjsPath2432" d="M 0 4Q 0 0 4 0L 226 0Q 230 0 230 4L 230 284Q 230 288 226 288L 4 288Q 0 288 0 284Z" stroke="rgba(50,50,50,1)" stroke-width="2" fill-opacity="1" fill="#ffffff"></path><path id="SvgjsPath2433" d="M 0 30L 230 30M 0 240L 230 240" stroke="rgba(50,50,50,1)" stroke-width="2" fill="none"></path><path id="SvgjsPath2434" d="M 0 0L 230 0L 230 288L 0 288Z" stroke="none" fill="none"></path><g id="SvgjsG2435"><text id="SvgjsText2436" font-family="微软雅黑" text-anchor="middle" font-size="13px" width="210px" fill="#323232" font-weight="700" align="middle" anchor="middle" family="微软雅黑" size="13px" weight="700" font-style="" opacity="1" y="5.05" transform="rotate(0)"><tspan id="SvgjsTspan2437" dy="16" x="115"><tspan id="SvgjsTspan2438" style="text-decoration:;">Route</tspan></tspan></text></g><g id="SvgjsG2439"><text id="SvgjsText2440" font-family="微软雅黑" text-anchor="start" font-size="13px" width="210px" fill="#323232" font-weight="400" align="middle" anchor="start" family="微软雅黑" size="13px" weight="400" font-style="" opacity="1" y="28.05" transform="rotate(0)"><tspan id="SvgjsTspan2441" dy="16" x="10"><tspan id="SvgjsTspan2442" style="text-decoration:;">-  int rid;</tspan></tspan><tspan id="SvgjsTspan2443" dy="16" x="10"><tspan id="SvgjsTspan2444" style="text-decoration:;">-  String rname;</tspan></tspan><tspan id="SvgjsTspan2445" dy="16" x="10"><tspan id="SvgjsTspan2446" style="text-decoration:;">-  double price;</tspan></tspan><tspan id="SvgjsTspan2447" dy="16" x="10"><tspan id="SvgjsTspan2448" style="text-decoration:;">-  String routeIntroduce;</tspan></tspan><tspan id="SvgjsTspan2449" dy="16" x="10"><tspan id="SvgjsTspan2450" style="text-decoration:;">-  String rflag;</tspan></tspan><tspan id="SvgjsTspan2451" dy="16" x="10"><tspan id="SvgjsTspan2452" style="text-decoration:;">-  String rdate;</tspan></tspan><tspan id="SvgjsTspan2453" dy="16" x="10"><tspan id="SvgjsTspan2454" style="text-decoration:;">-  String isThemeTour;</tspan></tspan><tspan id="SvgjsTspan2455" dy="16" x="10"><tspan id="SvgjsTspan2456" style="text-decoration:;">-  int count;</tspan></tspan><tspan id="SvgjsTspan2457" dy="16" x="10"><tspan id="SvgjsTspan2458" style="text-decoration:;">-  int cid;</tspan></tspan><tspan id="SvgjsTspan2459" dy="16" x="10"><tspan id="SvgjsTspan2460" style="text-decoration:;">-  String rimage;</tspan></tspan><tspan id="SvgjsTspan2461" dy="16" x="10"><tspan id="SvgjsTspan2462" style="text-decoration:;">-  int sid;</tspan></tspan><tspan id="SvgjsTspan2463" dy="16" x="10"><tspan id="SvgjsTspan2464" style="text-decoration:;">-  String sourceId;</tspan></tspan><tspan id="SvgjsTspan2465" dy="16" x="10"><tspan id="SvgjsTspan2466" style="text-decoration:;">-  Category category;</tspan></tspan></text></g><g id="SvgjsG2467"><text id="SvgjsText2468" font-family="微软雅黑" text-anchor="start" font-size="13px" width="210px" fill="#323232" font-weight="400" align="middle" anchor="start" family="微软雅黑" size="13px" weight="400" font-style="" opacity="1" y="255.05" transform="rotate(0)"><tspan id="SvgjsTspan2469" dy="16" x="10"><tspan id="SvgjsTspan2470" style="text-decoration:;">+setter/getter</tspan></tspan></text></g></g><g id="SvgjsG2471" transform="translate(395.64463370186945,205.13897487095414)"><path id="SvgjsPath2472" d="M 0 4Q 0 0 4 0L 226 0Q 230 0 230 4L 230 88Q 230 92 226 92L 4 92Q 0 92 0 88Z" stroke="rgba(50,50,50,1)" stroke-width="2" fill-opacity="1" fill="#ffffff"></path><path id="SvgjsPath2473" d="M 0 30L 230 30M 0 60L 230 60" stroke="rgba(50,50,50,1)" stroke-width="2" fill="none"></path><path id="SvgjsPath2474" d="M 0 0L 230 0L 230 92L 0 92Z" stroke="none" fill="none"></path><g id="SvgjsG2475"><text id="SvgjsText2476" font-family="微软雅黑" text-anchor="middle" font-size="13px" width="210px" fill="#323232" font-weight="700" align="middle" anchor="middle" family="微软雅黑" size="13px" weight="700" font-style="" opacity="1" y="5.05" transform="rotate(0)"><tspan id="SvgjsTspan2477" dy="16" x="115"><tspan id="SvgjsTspan2478" style="text-decoration:;">RouteAction</tspan></tspan></text></g><g id="SvgjsG2479"><text id="SvgjsText2480" font-family="微软雅黑" text-anchor="start" font-size="13px" width="210px" fill="#323232" font-weight="400" align="middle" anchor="start" family="微软雅黑" size="13px" weight="400" font-style="" opacity="1" y="38.05" transform="rotate(0)"><tspan id="SvgjsTspan2481" dy="16" x="10"><tspan id="SvgjsTspan2482" style="text-decoration:;">- RouteService:RouteService</tspan></tspan></text></g><g id="SvgjsG2483"><text id="SvgjsText2484" font-family="微软雅黑" text-anchor="start" font-size="13px" width="210px" fill="#323232" font-weight="400" align="middle" anchor="start" family="微软雅黑" size="13px" weight="400" font-style="" opacity="1" y="58.05" transform="rotate(0)"><tspan id="SvgjsTspan2485" dy="16" x="10"><tspan id="SvgjsTspan2486" style="text-decoration:;">+ findOne()</tspan></tspan><tspan id="SvgjsTspan2487" dy="16" x="10"><tspan id="SvgjsTspan2488" style="text-decoration:;">+ findByCid()</tspan></tspan></text></g></g><g id="SvgjsG2489"><path id="SvgjsPath2490" d="M395.64463370186945 286.0834203603199L333.33560126168385 286.0834203603199L333.33560126168385 168.99611772809692L271.02656882149824 168.99611772809692" stroke-dasharray="8,5" stroke="#323232" stroke-width="2" fill="none" marker-end="url(#SvgjsMarker2491)"></path></g><g id="SvgjsG2493"><path id="SvgjsPath2494" d="M563.4571337018683 296.6619240897046L563.4571337018683 383.2097346223434L883.4363643990998 383.2097346223434L883.4363643990998 469.75754515498215" stroke="#323232" stroke-width="2" fill="none" marker-end="url(#SvgjsMarker2495)"></path></g><g id="SvgjsG2497"><path id="SvgjsPath2498" d="M455.4571337018683 293.6619240897046L455.4571337018683 416.0036304207284L318.88371167864113 416.0036304207284L318.88371167864113 726.9167653231815" stroke="#323232" stroke-width="2" fill="none" marker-end="url(#SvgjsMarker2499)"></path></g><g id="SvgjsG2501" transform="translate(395.27728676309397,435.7416725511906)"><path id="SvgjsPath2502" d="M 0 4Q 0 0 4 0L 226 0Q 230 0 230 4L 230 58Q 230 62 226 62L 4 62Q 0 62 0 58Z" stroke="rgba(50,50,50,1)" stroke-width="2" fill-opacity="1" fill="#ffffff"></path><path id="SvgjsPath2503" d="M 0 30L 230 30" stroke="rgba(50,50,50,1)" stroke-width="2" fill="none"></path><path id="SvgjsPath2504" d="M 0 0L 230 0L 230 62L 0 62Z" stroke="none" fill="none"></path><g id="SvgjsG2505"><text id="SvgjsText2506" font-family="微软雅黑" text-anchor="middle" font-size="13px" width="210px" fill="#323232" font-weight="700" align="middle" anchor="middle" family="微软雅黑" size="13px" weight="700" font-style="italic" opacity="1" y="5.05" transform="rotate(0)"><tspan id="SvgjsTspan2507" dy="16" x="115"><tspan id="SvgjsTspan2508" style="text-decoration:;">RouteService</tspan></tspan></text></g><g id="SvgjsG2509"><text id="SvgjsText2510" font-family="微软雅黑" text-anchor="start" font-size="13px" width="210px" fill="#323232" font-weight="400" align="middle" anchor="start" family="微软雅黑" size="13px" weight="400" font-style="italic" opacity="1" y="28.05" transform="rotate(0)"><tspan id="SvgjsTspan2511" dy="16" x="10"><tspan id="SvgjsTspan2512" style="text-decoration:;">+ findOne()</tspan></tspan><tspan id="SvgjsTspan2513" dy="16" x="10"><tspan id="SvgjsTspan2514" style="text-decoration:;">+ findByCid()</tspan></tspan></text></g></g><g id="SvgjsG2515"><path id="SvgjsPath2516" d="M510.6446337018683 297.1389748709546L510.6446337018683 366.44032371107255L510.2772867630929 366.44032371107255L510.2772867630929 435.7416725511906" stroke="#323232" stroke-width="2" fill="none" marker-end="url(#SvgjsMarker2517)"></path></g><g id="SvgjsG2519"><path id="SvgjsPath2520" d="M509.7525054219851 575.4083404541014L509.7525054219851 536.5750065026459L510.2772867630929 536.5750065026459L510.2772867630929 497.7416725511904" stroke="#323232" stroke-width="2" fill="none" marker-end="url(#SvgjsMarker2521)"></path></g><g id="SvgjsG2523" transform="translate(55.00177655901251,395.2416725511905)"><path id="SvgjsPath2524" d="M 0 4Q 0 0 4 0L 226 0Q 230 0 230 4L 230 88.00000000000001Q 230 92.00000000000001 226 92.00000000000001L 4 92.00000000000001Q 0 92.00000000000001 0 88.00000000000001Z" stroke="rgba(50,50,50,1)" stroke-width="2" fill-opacity="1" fill="#ffffff"></path><path id="SvgjsPath2525" d="M 0 30L 230 30M 0 60.000000000000014L 230 60.000000000000014" stroke="rgba(50,50,50,1)" stroke-width="2" fill="none"></path><path id="SvgjsPath2526" d="M 0 0L 230 0L 230 92.00000000000001L 0 92.00000000000001Z" stroke="none" fill="none"></path><g id="SvgjsG2527"><text id="SvgjsText2528" font-family="微软雅黑" text-anchor="middle" font-size="13px" width="210px" fill="#323232" font-weight="700" align="middle" anchor="middle" family="微软雅黑" size="13px" weight="700" font-style="" opacity="1" y="5.05" transform="rotate(0)"><tspan id="SvgjsTspan2529" dy="16" x="115"><tspan id="SvgjsTspan2530" style="text-decoration:;">UserServiceImpl</tspan></tspan></text></g><g id="SvgjsG2531"><text id="SvgjsText2532" font-family="微软雅黑" text-anchor="start" font-size="13px" width="210px" fill="#323232" font-weight="400" align="middle" anchor="start" family="微软雅黑" size="13px" weight="400" font-style="" opacity="1" y="35.050000000000004" transform="rotate(0)"></text></g><g id="SvgjsG2533"><text id="SvgjsText2534" font-family="微软雅黑" text-anchor="start" font-size="13px" width="210px" fill="#323232" font-weight="400" align="middle" anchor="start" family="微软雅黑" size="13px" weight="400" font-style="" opacity="1" y="58.05000000000001" transform="rotate(0)"><tspan id="SvgjsTspan2535" dy="16" x="10"><tspan id="SvgjsTspan2536" style="text-decoration:;">+ findOneRoute()</tspan></tspan><tspan id="SvgjsTspan2537" dy="16" x="10"><tspan id="SvgjsTspan2538" style="text-decoration:;">+ findRouteByCid()</tspan></tspan></text></g></g><g id="SvgjsG2539"><path id="SvgjsPath2540" d="M285.00177655901217 466.90834005673753L340.13953166105307 466.90834005673753L340.13953166105307 466.74167255119073L395.27728676309397 466.74167255119073" stroke="#323232" stroke-width="2" fill="none" marker-end="url(#SvgjsMarker2541)"></path></g><g id="SvgjsG2543" transform="translate(55.00177655901254,560.39246785031)"><path id="SvgjsPath2544" d="M 0 4Q 0 0 4 0L 226 0Q 230 0 230 4L 230 120Q 230 124 226 124L 4 124Q 0 124 0 120Z" stroke="rgba(50,50,50,1)" stroke-width="2" fill-opacity="1" fill="#ffffff"></path><path id="SvgjsPath2545" d="M 0 30L 230 30M 0 60L 230 60" stroke="rgba(50,50,50,1)" stroke-width="2" fill="none"></path><path id="SvgjsPath2546" d="M 0 0L 230 0L 230 124L 0 124Z" stroke="none" fill="none"></path><g id="SvgjsG2547"><text id="SvgjsText2548" font-family="微软雅黑" text-anchor="middle" font-size="13px" width="210px" fill="#323232" font-weight="700" align="middle" anchor="middle" family="微软雅黑" size="13px" weight="700" font-style="" opacity="1" y="5.05" transform="rotate(0)"><tspan id="SvgjsTspan2549" dy="16" x="115"><tspan id="SvgjsTspan2550" style="text-decoration:;">RouteDatabase</tspan></tspan></text></g><g id="SvgjsG2551"><text id="SvgjsText2552" font-family="微软雅黑" text-anchor="start" font-size="13px" width="210px" fill="#323232" font-weight="400" align="middle" anchor="start" family="微软雅黑" size="13px" weight="400" font-style="" opacity="1" y="35.05" transform="rotate(0)"><tspan id="SvgjsTspan2553" dy="16" x="10"><tspan id="SvgjsTspan2554" style="text-decoration:;">- Route:Route</tspan></tspan></text></g><g id="SvgjsG2555"><text id="SvgjsText2556" font-family="微软雅黑" text-anchor="start" font-size="13px" width="210px" fill="#323232" font-weight="400" align="middle" anchor="start" family="微软雅黑" size="13px" weight="400" font-style="" opacity="1" y="58.05" transform="rotate(0)"><tspan id="SvgjsTspan2557" dy="16" x="10"><tspan id="SvgjsTspan2558" style="text-decoration:;">+ add(Route):String</tspan></tspan><tspan id="SvgjsTspan2559" dy="16" x="10"><tspan id="SvgjsTspan2560" style="text-decoration:;">+ update(Route):String</tspan></tspan><tspan id="SvgjsTspan2561" dy="16" x="10"><tspan id="SvgjsTspan2562" style="text-decoration:;">+ deleteById(int):String</tspan></tspan><tspan id="SvgjsTspan2563" dy="16" x="10"><tspan id="SvgjsTspan2564" style="text-decoration:;">+ getById(int):Route</tspan></tspan></text></g></g><g id="SvgjsG2565"><path id="SvgjsPath2566" d="M170.00177655901243 487.2416725511905L170.00177655901243 523.8170702007503L170.00177655901246 523.8170702007503L170.00177655901246 560.39246785031" stroke="#323232" stroke-width="2" fill="none" marker-end="url(#SvgjsMarker2567)"></path></g><g id="SvgjsG2569"><path id="SvgjsPath2570" d="M55.00177655901254 632.059135355857L25.00177655901254 632.059135355857L25.00177655901254 342.9961177280975L156.02656882149842 342.9961177280975L156.02656882149842 312.9961177280975" stroke-dasharray="8,5" stroke="#323232" stroke-width="2" fill="none" marker-end="url(#SvgjsMarker2571)"></path></g></svg>